<svg width="226" height="70" viewBox="0 0 226 70" version="1.1" xmlns="http://www.w3.org/2000/svg" xmlns:xlink="http://www.w3.org/1999/xlink">
<title>spaxi logo</title>
<desc>Created using Figma</desc>
<g id="Canvas" transform="translate(689 496)">
<g id="spaxi logo">
<g id="Canvas">
<g id="spaxi logo">
<g id="Vector">
<use xlink:href="#path0_fill" transform="translate(-663.257 -465.588)" fill="#FFFFFF"/>
</g>
<g id="Vector">
<use xlink:href="#path1_fill" transform="translate(-649.971 -465.489)" fill="#FFFFFF"/>
</g>
<g id="Vector">
<use xlink:href="#path2_fill" transform="translate(-689 -496)" fill="#FFFFFF"/>
</g>
</g>
</g>
<g id="SpaXi">
<use xlink:href="#path3_fill" transform="translate(-609 -500)" fill="#2FB1AE"/>
</g>
</g>
</g>
<defs>
<path id="path0_fill" d="M 4.68326 0.881074C 3.7248 -0.234777 2.01723 -0.300241 0.975897 0.738961L 0.805747 0.908752C 0.289813 1.42359 0 2.1218 0 2.84985L 0 3.66441C 0 4.74264 0.643899 5.71704 1.63707 6.1418L 1.77608 6.20121C 2.48591 6.50483 3.29872 6.44972 3.96097 6.05322C 4.60462 5.6679 5.03112 5.00474 5.11399 4.2602L 5.27642 2.80154C 5.35373 2.10705 5.13899 1.41157 4.68326 0.881074Z"/>
<path id="path1_fill" d="M 4.53918 0.994502C 3.68453 -0.199573 1.95985 -0.342019 0.920095 0.695608L 0.754925 0.860427C 0.271544 1.34278 0 1.997 0 2.67913L 0 4.07316C 0 4.8607 0.414126 5.59057 1.09091 5.99578C 1.70956 6.36618 2.46881 6.41764 3.13197 6.134L 3.34539 6.04276C 4.33856 5.618 4.98246 4.6436 4.98246 3.56537L 4.98246 2.37469C 4.98246 1.87982 4.8275 1.39722 4.53918 0.994502Z"/>
<path id="path2_fill" d="M 48.5789 56.7241L 47.2462 57.713L 48.5789 56.7241ZM 13.2865 56.9841L 13.2865 58.6414L 13.2865 56.9841ZM 42.3746 36.5539L 41.7204 35.0306L 42.3746 36.5539ZM 43.5684 31.5056L 42.217 32.4689L 43.5684 31.5056ZM 31.0191 33.2136L 29.3684 33.0306L 31.0191 33.2136ZM 30.426 31.2932L 31.6869 30.2146L 30.426 31.2932ZM 29.7037 36.4653L 30.5582 37.8864L 29.7037 36.4653ZM 30.8567 34.6723L 32.5074 34.8553L 30.8567 34.6723ZM 27.5188 36.6133L 28.173 35.09L 27.5188 36.6133ZM 16.8664 23.247L 16.538 21.6225L 16.8664 23.247ZM 27.3798 36.5539L 26.7255 38.0771L 27.3798 36.5539ZM 65.135 56.9315L 65.1141 58.5886L 65.135 56.9315ZM 26.7186 31.151L 27.893 32.3229L 26.7186 31.151ZM 2.10276 21.3118L 0.629085 20.5476L 2.10276 21.3118ZM 5.81287 56.9841L 5.81287 55.3268L 5.81287 56.9841ZM 54.3948 23.3095L 54.7143 21.6831L 54.3948 23.3095ZM 40.1201 36.5069L 40.9746 35.0858L 40.1201 36.5069ZM 42.1612 36.6451L 42.8155 38.1684L 42.1612 36.6451ZM 48.057 67.3427L 48.057 69L 48.057 67.3427ZM 51.7226 62.7963L 53.2993 62.2756L 51.7226 62.7963ZM 26.5484 31.3208L 25.3741 30.1489L 25.3741 30.149L 26.5484 31.3208ZM 69.1277 21.5595L 67.5622 22.113L 69.1277 21.5595ZM 24.1153 67.3427L 24.1153 65.6854L 24.1153 67.3427ZM 20.4336 62.2061L 21.9653 62.8467L 20.4336 62.2061ZM 24.1153 69L 48.057 69L 48.057 65.6854L 24.1153 65.6854L 24.1153 69ZM 3.32164 52.8409L 3.32164 23.1507L 0 23.1507L 0 52.8409L 3.32164 52.8409ZM 67.6784 22.8372L 67.6784 52.7886L 71 52.7886L 71 22.8372L 67.6784 22.8372ZM 53.2993 62.2756C 52.4941 59.8472 51.3345 57.6445 49.9117 55.7352L 47.2462 57.713C 48.4552 59.3354 49.451 61.2214 50.1458 63.3169L 53.2993 62.2756ZM 49.9117 55.7352C 46.0768 50.5889 40.2405 47.4853 34.2629 48.0632C 28.2093 48.6484 22.5197 52.95 18.9018 61.5657L 21.9653 62.8467C 25.252 55.0197 30.0718 51.7985 34.5831 51.3624C 39.1705 50.9189 43.9546 53.2957 47.2462 57.713L 49.9117 55.7352ZM 23.2451 55.3268L 13.2865 55.3268L 13.2865 58.6414L 23.2451 58.6414L 23.2451 55.3268ZM 13.2865 55.3268L 5.81287 55.3268L 5.81287 58.6414L 13.2865 58.6414L 13.2865 55.3268ZM 3.57642 22.0761C 11.1412 7.5519 23.1882 2.74143 35.2058 3.36758L 35.379 0.0575146C 22.1952 -0.629398 8.85373 4.7563 0.629085 20.5476L 3.57642 22.0761ZM 35.3468 3.36894C 51.0659 2.85491 63.606 10.9719 67.5622 22.113L 70.6931 21.006C 66.152 8.21774 52.074 -0.494403 35.238 0.0561474L 35.3468 3.36894ZM 17.1947 24.8716C 22.6783 23.768 26.8462 21.8857 30.0435 18.2037C 33.1872 14.5834 35.2295 9.40453 36.9112 2.08282L 33.6736 1.34228C 32.0262 8.51385 30.132 13.0403 27.5332 16.033C 24.9881 18.964 21.6075 20.6023 16.538 21.6225L 17.1947 24.8716ZM 65.1558 55.2743L 58.1495 55.1865L 58.1078 58.5008L 65.1141 58.5886L 65.1558 55.2743ZM 58.1495 55.1865L 48.5998 55.0669L 48.5581 58.3812L 58.1078 58.5008L 58.1495 55.1865ZM 54.7143 21.6831C 50.4009 20.8392 47.2955 19.2202 44.6136 16.1773C 41.8638 13.0574 39.4786 8.35179 36.8532 1.14626L 33.7316 2.27883C 36.3892 9.57309 38.9442 14.7638 42.1194 18.3663C 45.3624 22.0458 49.1666 23.9754 54.0752 24.9358L 54.7143 21.6831ZM 14.9474 56.9841L 14.9474 44.1402L 11.6257 44.1402L 11.6257 56.9841L 14.9474 56.9841ZM 14.9474 44.1402L 14.9474 27.4585L 11.6257 27.4585L 11.6257 44.1402L 14.9474 44.1402ZM 59.7895 56.8436L 59.7895 44.1402L 56.4678 44.1402L 56.4678 56.8436L 59.7895 56.8436ZM 59.7895 44.1402L 59.7895 27.5996L 56.4678 27.5996L 56.4678 44.1402L 59.7895 44.1402ZM 12.6329 45.6637C 21.3524 49.3892 28.364 51.3197 35.5198 51.3181C 42.6708 51.3165 49.804 49.3852 58.7657 45.6707L 57.4916 42.6097C 48.709 46.2499 42.0423 48.0021 35.519 48.0035C 29.0004 48.005 22.4631 46.2581 13.9402 42.6167L 12.6329 45.6637ZM 25.5442 29.9792L 25.3741 30.1489L 27.7228 32.4927L 27.893 32.3229L 25.5442 29.9792ZM 24.0819 33.2619L 24.0819 34.0765L 27.4035 34.0765L 27.4035 33.2619L 24.0819 33.2619ZM 26.7255 38.0771L 26.8645 38.1366L 28.173 35.09L 28.034 35.0306L 26.7255 38.0771ZM 32.5074 34.8553L 32.6698 33.3966L 29.3684 33.0306L 29.206 34.4893L 32.5074 34.8553ZM 38.775 30.0349L 38.6098 30.1997L 40.9585 32.5434L 41.1237 32.3786L 38.775 30.0349ZM 37.3684 33.1903L 37.3684 34.5843L 40.6901 34.5843L 40.6901 33.1903L 37.3684 33.1903ZM 42.8155 38.1684L 43.0289 38.0771L 41.7204 35.0306L 41.507 35.1218L 42.8155 38.1684ZM 45.6725 34.0765L 45.6725 32.8858L 42.3509 32.8858L 42.3509 34.0765L 45.6725 34.0765ZM 43.0289 38.0771C 44.6327 37.3912 45.6725 35.8176 45.6725 34.0765L 42.3509 34.0765C 42.3509 34.4917 42.1029 34.867 41.7204 35.0306L 43.0289 38.0771ZM 38.6098 30.1997C 37.8149 30.9928 37.3684 32.0685 37.3684 33.1903L 40.6901 33.1903C 40.6901 32.9476 40.7866 32.7149 40.9585 32.5434L 38.6098 30.1997ZM 41.1237 32.3786C 41.4378 32.0652 41.9588 32.1082 42.217 32.4689L 44.9199 30.5423C 43.4687 28.515 40.5404 28.2731 38.775 30.0349L 41.1237 32.3786ZM 32.6698 33.3966C 32.7979 32.2459 32.442 31.0937 31.6869 30.2146L 29.165 32.3716C 29.3213 32.5537 29.395 32.7923 29.3684 33.0306L 32.6698 33.3966ZM 30.5582 37.8864C 31.6463 37.2349 32.3672 36.1139 32.5074 34.8553L 29.206 34.4893C 29.1804 34.7197 29.0484 34.9249 28.8492 35.0443L 30.5582 37.8864ZM 26.8645 38.1366C 28.0646 38.6498 29.4386 38.5567 30.5582 37.8864L 28.8492 35.0443C 28.6442 35.1669 28.3927 35.184 28.173 35.09L 26.8645 38.1366ZM 16.538 21.6225C 13.7967 22.1742 11.6257 24.5265 11.6257 27.4585L 14.9474 27.4585C 14.9474 26.2437 15.8625 25.1397 17.1947 24.8716L 16.538 21.6225ZM 24.0819 34.0765C 24.0819 35.8176 25.1217 37.3912 26.7255 38.0771L 28.034 35.0306C 27.6515 34.867 27.4035 34.4917 27.4035 34.0765L 24.0819 34.0765ZM 67.6784 52.7886C 67.6784 54.1737 66.5439 55.2917 65.1558 55.2743L 65.1141 58.5886C 68.3528 58.6292 71 56.0205 71 52.7886L 67.6784 52.7886ZM 27.893 32.3229C 28.2503 31.9664 28.8361 31.9889 29.165 32.3716L 31.6869 30.2146C 30.0989 28.3658 27.2696 28.2573 25.5442 29.9792L 27.893 32.3229ZM 3.32164 23.1507C 3.32164 22.7643 3.41121 22.3933 3.57642 22.0761L 0.629085 20.5476C 0.204737 21.3623 0 22.2615 0 23.1507L 3.32164 23.1507ZM 45.6725 32.8858C 45.6725 32.0455 45.4094 31.2261 44.9199 30.5423L 42.217 32.4689C 42.304 32.5906 42.3509 32.7363 42.3509 32.8858L 45.6725 32.8858ZM 0 52.8409C 0 56.0444 2.60251 58.6414 5.81287 58.6414L 5.81287 55.3268C 4.437 55.3268 3.32164 54.2139 3.32164 52.8409L 0 52.8409ZM 54.0752 24.9358C 55.5016 25.2149 56.4678 26.363 56.4678 27.5996L 59.7895 27.5996C 59.7895 24.5693 57.4841 22.2251 54.7143 21.6831L 54.0752 24.9358ZM 39.2657 37.928C 40.3416 38.5722 41.6621 38.6616 42.8155 38.1684L 41.507 35.1218C 41.334 35.1958 41.136 35.1824 40.9746 35.0858L 39.2657 37.928ZM 48.057 69C 51.4086 69 54.5162 65.9454 53.2993 62.2756L 50.1458 63.3169C 50.4915 64.3595 49.6796 65.6854 48.057 65.6854L 48.057 69ZM 25.3741 30.149C 24.5467 30.9745 24.0819 32.0944 24.0819 33.2619L 27.4035 33.2619C 27.4035 32.9734 27.5184 32.6967 27.7228 32.4927L 25.3741 30.149ZM 71 22.8372C 71 22.2365 70.9089 21.6136 70.6931 21.006L 67.5622 22.113C 67.6374 22.3248 67.6784 22.5685 67.6784 22.8372L 71 22.8372ZM 37.3684 34.5843C 37.3684 35.954 38.0886 37.2233 39.2657 37.928L 40.9746 35.0858C 40.7981 34.9801 40.6901 34.7897 40.6901 34.5843L 37.3684 34.5843ZM 24.1153 65.6854C 22.3849 65.6854 21.4342 64.1114 21.9653 62.8467L 18.9018 61.5657C 17.3179 65.3375 20.3733 69 24.1153 69L 24.1153 65.6854Z"/>
<path id="path3_fill" d="M 29.448 27.656L 19.872 27.656L 19.872 23.984C 19.872 23.6 19.728 23.264 19.44 22.976C 19.2 22.688 18.888 22.544 18.504 22.544L 14.544 22.544C 14.16 22.544 13.824 22.688 13.536 22.976C 13.296 23.264 13.176 23.6 13.176 23.984L 13.176 32.264C 13.176 32.648 13.296 32.984 13.536 33.272C 13.824 33.56 14.16 33.704 14.544 33.704L 21.024 33.704C 26.976 33.8 29.952 36.968 29.952 43.208L 29.952 53.216C 29.952 59.552 26.976 62.72 21.024 62.72L 12.528 62.72C 6.576 62.72 3.6 59.552 3.6 53.216L 3.6 48.392L 13.176 48.392L 13.176 53.576C 13.176 53.96 13.296 54.296 13.536 54.584C 13.824 54.872 14.16 55.016 14.544 55.016L 19.008 55.016C 19.392 55.016 19.704 54.872 19.944 54.584C 20.232 54.296 20.376 53.96 20.376 53.576L 20.376 44.432C 20.376 44.048 20.232 43.712 19.944 43.424C 19.704 43.136 19.392 42.992 19.008 42.992L 12.528 42.992C 6.576 42.992 3.6 39.824 3.6 33.488L 3.6 24.2C 3.6 17.864 6.576 14.696 12.528 14.696L 20.52 14.696C 26.472 14.696 29.448 17.864 29.448 24.2L 29.448 27.656ZM 53.2806 62.72L 51.7686 62.72C 49.3206 62.72 47.3526 62.144 45.8646 60.992L 45.8646 73.448L 36.2166 73.448L 36.2166 26.864L 44.3526 26.864L 44.3526 29.456C 45.8406 27.248 48.3126 26.144 51.7686 26.144L 53.2806 26.144C 59.2326 26.144 62.2086 29.312 62.2086 35.648L 62.2086 53.216C 62.2086 59.552 59.2326 62.72 53.2806 62.72ZM 45.8646 34.496L 45.8646 54.368C 45.8646 54.752 45.9846 55.088 46.2246 55.376C 46.5126 55.664 46.8486 55.808 47.2326 55.808L 51.1926 55.808C 51.5766 55.808 51.8886 55.664 52.1286 55.376C 52.4166 55.088 52.5606 54.752 52.5606 54.368L 52.5606 34.496C 52.5606 34.112 52.4166 33.776 52.1286 33.488C 51.8886 33.2 51.5766 33.056 51.1926 33.056L 47.2326 33.056C 46.8486 33.056 46.5126 33.2 46.2246 33.488C 45.9846 33.776 45.8646 34.112 45.8646 34.496ZM 86.6273 26.864L 94.7632 26.864L 94.7632 62L 86.6273 62L 86.6273 59.408C 85.1393 61.616 82.6672 62.72 79.2112 62.72L 77.6992 62.72C 71.7473 62.72 68.7713 59.552 68.7713 53.216L 68.7713 35.648C 68.7713 29.312 71.7473 26.144 77.6992 26.144L 79.2112 26.144C 82.6672 26.144 85.1393 27.248 86.6273 29.456L 86.6273 26.864ZM 85.1153 54.368L 85.1153 34.496C 85.1153 34.112 84.9713 33.776 84.6833 33.488C 84.4433 33.2 84.1313 33.056 83.7472 33.056L 79.7872 33.056C 79.4032 33.056 79.0672 33.2 78.7793 33.488C 78.5393 33.776 78.4193 34.112 78.4193 34.496L 78.4193 54.368C 78.4193 54.752 78.5393 55.088 78.7793 55.376C 79.0672 55.664 79.4032 55.808 79.7872 55.808L 83.7472 55.808C 84.1313 55.808 84.4433 55.664 84.6833 55.376C 84.9713 55.088 85.1153 54.752 85.1153 54.368ZM 128.686 15.416L 121.27 38.672L 129.622 62L 119.11 62L 114.214 45.728L 109.318 62L 98.7339 62L 107.086 38.672L 99.8139 15.416L 109.606 15.416L 114.214 30.464L 118.822 15.416L 128.686 15.416ZM 143.602 22.472C 142.594 23.48 141.37 23.984 139.93 23.984C 138.49 23.984 137.242 23.48 136.186 22.472C 135.13 21.416 134.602 20.168 134.602 18.728C 134.602 17.24 135.13 15.992 136.186 14.984C 137.242 13.928 138.49 13.4 139.93 13.4C 141.37 13.4 142.594 13.928 143.602 14.984C 144.658 15.992 145.186 17.24 145.186 18.728C 145.186 20.216 144.658 21.464 143.602 22.472ZM 135.106 62L 135.106 26.864L 144.754 26.864L 144.754 62L 135.106 62Z"/>
</defs>
</svg>
