<?xml version="1.0" standalone="no"?>
<!DOCTYPE svg PUBLIC "-//W3C//DTD SVG 20010904//EN"
 "http://www.w3.org/TR/2001/REC-SVG-20010904/DTD/svg10.dtd">
<svg version="1.0" xmlns="http://www.w3.org/2000/svg"
 width="700.000000pt" height="700.000000pt" viewBox="0 0 700.000000 700.000000"
 preserveAspectRatio="xMidYMid meet">
<metadata>
Created by potrace 1.11, written by Peter Selinger 2001-2013
</metadata>
<g transform="translate(0.000000,700.000000) scale(0.100000,-0.100000)"
fill="#000000" stroke="none">
<path d="M174 6979 c-34 -13 -68 -37 -97 -68 -85 -90 -77 249 -77 -3422 l0
-3267 21 -50 c23 -54 72 -107 134 -144 l40 -23 3280 -3 c3685 -3 3345 -10
3436 75 31 29 55 63 68 97 20 50 20 91 20 3317 1 3649 8 3329 -71 3415 -22 24
-63 55 -92 68 l-51 25 -3280 0 c-3243 0 -3281 0 -3331 -20z"/>
</g>
</svg>
