<svg width="175" height="217" viewBox="0 0 175 217" version="1.1" xmlns="http://www.w3.org/2000/svg" xmlns:xlink="http://www.w3.org/1999/xlink">
<title>Thilina</title>
<desc>Created using Figma</desc>
<g id="Canvas" transform="translate(-4757 -1278)">
<g id="Thilina">
<g id="Rectangle">
<use xlink:href="#path0_fill" transform="translate(4757 1278)" fill="#676767" fill-opacity="0.14"/>
</g>
<g id="Vector">
<use xlink:href="#path1_fill" transform="translate(4766.63 1308.54)" fill="#2FB1AE"/>
</g>
</g>
</g>
<defs>
<path id="path0_fill" d="M 0 0L 175.001 0L 175.001 216.161L 0 216.161L 0 0Z"/>
<path id="path1_fill" d="M 132.928 100.776C 124.447 92.2867 114.352 86.002 103.338 82.1976C 115.134 74.0646 122.884 60.4535 122.884 45.0628C 122.884 20.2152 102.69 0 77.8674 0C 53.045 0 32.8503 20.2152 32.8503 45.0628C 32.8503 60.4535 40.6002 74.0646 52.3968 82.1976C 41.3828 86.002 31.2881 92.2867 22.8069 100.776C 8.09973 115.499 0 135.073 0 155.893L 12.1668 155.893C 12.1668 119.629 41.6399 90.1256 77.8674 90.1256C 114.095 90.1256 143.568 119.629 143.568 155.893L 155.735 155.893C 155.735 135.073 147.635 115.499 132.928 100.776ZM 77.8674 77.9464C 59.7538 77.9464 45.0171 63.1951 45.0171 45.0628C 45.0171 26.9305 59.7538 12.1791 77.8674 12.1791C 95.9809 12.1791 110.718 26.9305 110.718 45.0628C 110.718 63.1951 95.9809 77.9464 77.8674 77.9464Z"/>
</defs>
</svg>
